<svg width="1001" height="1001" viewBox="0 0 1001 1001" fill="none" xmlns="http://www.w3.org/2000/svg">
<path d="M466.7 708.3H412.2L416 685.9C401.3 701.7 382.5 710.5 360.7 710.5C312.8 710.5 287.3 675.2 296.3 622.6C305.2 570.6 342.3 536.2 389.2 536.2C411.6 536.2 428 545 437.3 560.8L452.1 474.4H506.6L466.7 708.3ZM426.6 623.8C431.1 597.6 419 579.7 396.3 579.7C373.6 579.7 355.4 597.7 350.6 623.8C346.4 650 358.4 668.2 381.1 668.2C403.9 668.3 422.1 650 426.6 623.8Z" fill="white"/>
<path d="M674.8 638H555.4C557.3 658.2 569.9 669.5 590 669.5C604.8 669.5 620.3 663.5 633.6 652.2L657.5 680.2C636.9 699.1 609.5 710.1 578.3 710.1C522.8 710.1 494.1 675.4 503 623.7C512 571.1 553.9 536.4 606.5 536.4C666.3 536.5 689.2 575.9 674.8 638ZM627.5 608.7C631.1 587.9 620.1 574.3 600.6 574.3C581.7 574.3 566.4 588.2 559.4 608.7H627.5Z" fill="white"/>
<path d="M715.6 708.3L680.7 538.4H736.8L752.8 658.5L810.2 538.4H864.4L771.3 708.3H715.6Z" fill="white"/>
<path d="M453.9 270H378.5L137 732.4H212.4L453.9 270Z" fill="#215FF6"/>
</svg>
